<svg width="64" height="64" viewBox="0 0 64 64" fill="none" xmlns="http://www.w3.org/2000/svg">
  <defs>
    <linearGradient id="bg" x1="10" y1="6" x2="54" y2="58" gradientUnits="userSpaceOnUse">
      <stop stop-color="#0F172A"/>
      <stop offset="1" stop-color="#0EA5E9"/>
    </linearGradient>
    <linearGradient id="card" x1="16" y1="12" x2="48" y2="50" gradientUnits="userSpaceOnUse">
      <stop stop-color="#F1F2F4"/>
      <stop offset="1" stop-color="#DDEBFA"/>
    </linearGradient>
  </defs>
  <rect x="4" y="4" width="56" height="56" rx="20" fill="url(#bg)"/>
  <path d="M19.5 19.25C19.5 15.52 22.52 12.5 26.25 12.5H39.08C44.14 12.5 48.25 16.61 48.25 21.67V36.36C48.25 41.05 44.45 44.85 39.76 44.85H27.1C22.89 44.85 19.5 41.45 19.5 37.25V19.25Z" fill="#0F172A" fill-opacity="0.18"/>
  <path d="M16 18.5C16 14.36 19.36 11 23.5 11H39.1C43.46 11 47 14.54 47 18.9V36.92C47 41.38 43.38 45 38.92 45H23.88C19.53 45 16 41.47 16 37.12V18.5Z" fill="url(#card)"/>
  <path d="M16 18.5C16 14.36 19.36 11 23.5 11H39.1C43.46 11 47 14.54 47 18.9V36.92C47 41.38 43.38 45 38.92 45H23.88C19.53 45 16 41.47 16 37.12V18.5Z" stroke="#F1F2F4" stroke-opacity="0.65" stroke-width="1.5"/>
  <path d="M23 10V16.5" stroke="#0F172A" stroke-width="3.2" stroke-linecap="round"/>
  <path d="M31.5 10V16.5" stroke="#0F172A" stroke-width="3.2" stroke-linecap="round"/>
  <path d="M40 10V16.5" stroke="#0F172A" stroke-width="3.2" stroke-linecap="round"/>
  <path d="M21.8 15.8C21.8 14.03 23.23 12.6 25 12.6C26.77 12.6 28.2 14.03 28.2 15.8" stroke="#0F172A" stroke-width="2.4" stroke-linecap="round"/>
  <path d="M30.3 15.8C30.3 14.03 31.73 12.6 33.5 12.6C35.27 12.6 36.7 14.03 36.7 15.8" stroke="#0F172A" stroke-width="2.4" stroke-linecap="round"/>
  <path d="M38.8 15.8C38.8 14.03 40.23 12.6 42 12.6C43.77 12.6 45.2 14.03 45.2 15.8" stroke="#0F172A" stroke-width="2.4" stroke-linecap="round"/>
  <path d="M24.5 29.94L30.05 35.49L39.65 25.89" stroke="#0F172A" stroke-width="5.2" stroke-linecap="round" stroke-linejoin="round"/>
</svg>
